<?xml version="1.0" standalone="no"?>
<!DOCTYPE svg PUBLIC "-//W3C//DTD SVG 20010904//EN"
 "http://www.w3.org/TR/2001/REC-SVG-20010904/DTD/svg10.dtd">
<svg version="1.0" xmlns="http://www.w3.org/2000/svg"
 width="200.000000pt" height="200.000000pt" viewBox="0 0 200.000000 200.000000"
 preserveAspectRatio="xMidYMid meet">
<metadata>
Created by potrace 1.11, written by Peter Selinger 2001-2013
</metadata>
<g transform="translate(0.000000,200.000000) scale(0.100000,-0.100000)"
fill="#000000" stroke="none">
<path d="M936 1613 c-5 -17 -14 -34 -22 -37 -8 -3 -14 -11 -14 -18 0 -9 3 -8
10 2 8 12 10 9 10 -12 0 -24 2 -25 25 -15 14 7 25 16 25 20 0 5 -4 6 -9 2 -6
-3 -11 16 -13 42 -4 46 -4 47 -12 16z"/>
<path d="M750 1587 c0 -14 5 -17 16 -13 13 5 14 4 6 -7 -7 -8 -8 -18 -4 -22 4
-5 -1 -5 -10 -2 -12 4 -18 1 -18 -9 0 -12 7 -14 33 -9 44 10 46 12 41 42 -7
38 -12 43 -39 41 -17 -2 -25 -8 -25 -21z"/>
<path d="M891 1535 c1 -19 18 -51 18 -35 0 8 -4 22 -9 30 -5 8 -9 11 -9 5z"/>
<path d="M645 1510 c-3 -5 -2 -16 2 -24 11 -20 38 -3 30 18 -7 18 -23 21 -32
6z"/>
<path d="M971 1474 c0 -11 3 -14 6 -6 3 7 2 16 -1 19 -3 4 -6 -2 -5 -13z"/>
<path d="M841 1470 c0 -8 4 -22 9 -30 12 -18 12 -2 0 25 -6 13 -9 15 -9 5z"/>
<path d="M910 1454 c0 -16 5 -36 10 -44 6 -10 7 -2 3 25 -7 49 -13 58 -13 19z"/>
<path d="M1143 1408 c-4 -7 -8 -43 -9 -80 -1 -36 -5 -71 -8 -76 -11 -18 6 -42
28 -42 32 0 36 7 19 42 -12 23 -14 46 -9 99 7 66 -1 88 -21 57z"/>
<path d="M475 1388 c16 -18 16 -20 2 -9 -23 18 -34 7 -16 -16 12 -14 12 -16 0
-8 -10 6 -12 4 -7 -4 5 -7 15 -10 23 -7 11 4 13 2 9 -9 -7 -19 8 -19 24 0 7 8
19 15 27 15 9 0 13 6 9 15 -3 8 23 -6 57 -33 97 -73 148 -107 205 -136 58 -29
66 -39 25 -31 l-28 5 25 -11 c14 -6 37 -17 52 -24 15 -8 30 -10 33 -5 3 5 13
7 23 4 12 -4 10 1 -7 15 -13 12 -30 21 -37 21 -20 0 -62 28 -103 67 -19 18
-37 30 -41 28 -4 -3 -13 2 -20 10 -7 8 -21 15 -32 15 -26 0 -90 49 -81 63 3 5
2 7 -3 4 -5 -3 -21 4 -34 15 -14 11 -19 17 -12 13 6 -3 12 -2 12 3 0 5 -15 8
-32 8 -18 -1 -46 3 -63 7 l-29 8 19 -23z"/>
<path d="M896 1385 c-9 -26 -7 -32 5 -12 6 10 9 21 6 23 -2 3 -7 -2 -11 -11z"/>
<path d="M942 1358 c6 -19 19 -45 29 -59 16 -19 15 -14 -5 29 -29 64 -38 76
-24 30z"/>
<path d="M1292 1361 c-18 -11 47 -139 71 -140 23 -1 22 10 -13 79 -32 64 -40
72 -58 61z"/>
<path d="M544 1312 c16 -17 69 -51 117 -76 49 -25 83 -46 77 -48 -7 -3 -5 -7
6 -11 10 -4 15 -3 11 3 -3 6 0 10 7 11 7 0 2 5 -12 11 -38 17 -162 90 -185
108 -38 32 -50 33 -21 2z"/>
<path d="M844 1308 c16 -21 30 -38 33 -38 8 0 -16 36 -38 55 -19 16 -18 13 5
-17z"/>
<path d="M735 1290 c3 -5 8 -10 11 -10 2 0 4 5 4 10 0 6 -5 10 -11 10 -5 0 -7
-4 -4 -10z"/>
<path d="M465 1280 c-3 -5 0 -7 8 -4 13 5 155 -59 167 -75 8 -11 54 -41 62
-41 4 0 -8 16 -28 35 -19 19 -40 35 -47 35 -7 0 -41 14 -75 30 -70 33 -78 35
-87 20z"/>
<path d="M424 1246 c-3 -14 -2 -32 4 -41 7 -14 11 -12 21 13 13 30 9 52 -9 52
-5 0 -12 -11 -16 -24z"/>
<path d="M890 1261 c0 -5 5 -13 10 -16 6 -3 10 -2 10 4 0 5 -4 13 -10 16 -5 3
-10 2 -10 -4z"/>
<path d="M1096 1235 c4 -11 11 -25 15 -31 12 -15 -2 -26 -17 -13 -10 8 -13 6
-13 -8 0 -10 -3 -37 -7 -60 -5 -32 -3 -43 6 -43 9 0 9 -4 2 -13 -6 -6 -10 -40
-10 -75 1 -42 -4 -68 -14 -80 -24 -28 -33 -46 -18 -37 10 6 12 4 6 -10 -7 -18
-6 -18 14 0 24 21 26 29 6 22 -10 -4 -13 -1 -10 8 6 13 25 7 63 -22 6 -5 -41
-37 -56 -39 -7 -1 -20 7 -28 19 -8 11 -17 18 -20 15 -8 -8 6 -59 14 -53 4 2
15 -10 25 -26 14 -24 15 -33 5 -45 -11 -13 -9 -14 13 -9 21 5 27 2 33 -14 3
-12 10 -21 15 -21 12 0 2 27 -22 63 -22 30 -20 32 46 47 l31 8 -28 1 c-16 1
-37 -4 -49 -10 -31 -17 -34 -2 -4 26 34 31 43 31 84 -4 l33 -28 -50 -7 c-28
-4 -53 -11 -56 -17 -4 -6 3 -7 22 -3 30 8 38 9 92 6 28 -2 32 -5 28 -21 -3
-12 1 -22 9 -25 8 -3 14 -1 14 4 0 5 8 11 18 14 9 3 31 32 47 63 17 32 33 60
36 63 11 9 -10 50 -25 50 -10 0 -13 -6 -9 -17 5 -12 3 -14 -7 -8 -8 5 -30 11
-50 15 -29 4 -37 11 -47 40 -10 30 -18 34 -14 7 1 -4 -6 -24 -15 -45 -14 -32
-17 -34 -23 -17 -8 19 -8 19 -19 0 -6 -11 -12 -15 -12 -8 0 6 -13 14 -30 18
-16 4 -30 12 -30 18 0 7 9 63 20 126 24 138 24 140 0 171 -16 20 -19 21 -14 5z
m194 -339 c28 -2 39 -28 23 -53 l-15 -22 -39 26 c-44 29 -49 43 -16 43 18 0
19 2 7 11 -12 9 -11 10 5 4 11 -4 27 -8 35 -9z m-90 -38 c0 -6 -6 -5 -15 2 -8
7 -15 14 -15 16 0 2 7 1 15 -2 8 -4 15 -11 15 -16z m60 -33 c19 -14 28 -25 22
-25 -7 0 -18 5 -25 10 -7 6 -21 17 -32 25 -11 8 -15 15 -9 15 5 0 25 -11 44
-25z m80 15 c0 -5 -4 -10 -10 -10 -5 0 -10 5 -10 10 0 6 5 10 10 10 6 0 10 -4
10 -10z m-95 -38 c-3 -3 -11 0 -18 7 -9 10 -8 11 6 5 10 -3 15 -9 12 -12z"/>
<path d="M358 1223 c7 -3 16 -2 19 1 4 3 -2 6 -13 5 -11 0 -14 -3 -6 -6z"/>
<path d="M896 1217 c3 -10 9 -15 12 -12 3 3 0 11 -7 18 -10 9 -11 8 -5 -6z"/>
<path d="M960 1065 l0 -135 50 0 50 0 0 135 0 135 -50 0 -50 0 0 -135z"/>
<path d="M1145 1188 c-2 -7 -11 -60 -20 -118 -9 -58 -19 -113 -21 -122 -5 -15
2 -18 44 -18 l50 0 7 68 8 67 22 -65 c19 -59 24 -65 51 -68 28 -3 30 0 50 65
l21 68 8 -67 7 -68 50 0 c42 0 49 3 45 18 -3 9 -13 70 -23 135 l-18 117 -52 0
-52 0 -18 -67 c-10 -36 -19 -62 -20 -57 -2 5 -10 35 -19 67 l-16 57 -50 0
c-31 0 -51 -5 -54 -12z"/>
<path d="M1510 1065 l0 -136 93 3 92 3 0 35 c0 34 -1 35 -42 38 -53 4 -56 20
-5 24 34 3 37 6 40 36 3 31 2 32 -37 32 -30 0 -41 4 -41 15 0 11 11 15 40 15
39 0 40 1 40 35 l0 35 -90 0 -90 0 0 -135z"/>
<path d="M598 1163 c7 -3 16 -2 19 1 4 3 -2 6 -13 5 -11 0 -14 -3 -6 -6z"/>
<path d="M650 1150 c0 -5 5 -10 11 -10 5 0 7 5 4 10 -3 6 -8 10 -11 10 -2 0
-4 -4 -4 -10z"/>
<path d="M393 1120 c-1 -11 2 -20 8 -20 5 0 9 -5 9 -11 0 -6 -9 -9 -20 -6 -11
3 -20 1 -20 -4 0 -5 5 -9 11 -9 8 0 8 -4 0 -14 -9 -10 -8 -16 4 -26 18 -15 45
-6 45 15 0 9 8 28 17 43 17 26 17 26 0 13 -15 -12 -17 -11 -17 13 0 32 -35 38
-37 6z"/>
<path d="M700 1131 c0 -5 7 -11 14 -14 10 -4 13 -1 9 9 -6 15 -23 19 -23 5z"/>
<path d="M1755 1075 l37 -46 -36 -44 c-20 -24 -36 -46 -36 -49 0 -3 24 -6 53
-6 46 0 55 3 64 23 l10 22 7 -22 c6 -20 14 -23 62 -23 30 0 54 3 54 6 0 3 -16
25 -36 50 l-36 44 31 39 c17 21 31 42 31 45 0 3 -22 6 -50 6 -36 0 -52 -5 -59
-17 -9 -17 -10 -17 -16 0 -6 13 -19 17 -62 17 l-55 0 37 -45z"/>
<path d="M814 1061 l19 -21 -37 0 c-21 0 -35 -4 -31 -10 3 -5 26 -9 51 -8 37
0 49 -4 71 -28 18 -19 24 -23 20 -10 -6 15 -4 17 16 12 20 -5 23 -2 21 22 -3
49 -4 51 -18 46 -8 -3 -17 -1 -21 5 -10 17 -28 13 -21 -4 7 -20 -16 -19 -57 1
l-32 17 19 -22z"/>
<path d="M565 995 c-27 -8 -63 -14 -79 -15 -19 0 -27 -3 -20 -10 6 -6 31 -4
69 5 33 7 80 18 105 23 43 9 44 10 10 10 -19 0 -57 -6 -85 -13z"/>
<path d="M429 955 c-1 -5 -1 -13 0 -17 0 -4 -7 -4 -17 -1 -14 6 -15 4 -5 -9 7
-8 10 -18 6 -22 -6 -6 17 -5 57 3 3 1 0 5 -6 9 -6 4 -16 16 -22 27 -6 11 -12
16 -13 10z"/>
<path d="M535 942 c-27 -8 -45 -17 -40 -19 6 -2 35 5 65 16 65 23 47 26 -25 3z"/>
<path d="M930 950 c0 -5 5 -10 11 -10 5 0 7 5 4 10 -3 6 -8 10 -11 10 -2 0 -4
-4 -4 -10z"/>
<path d="M890 940 c-8 -5 -11 -10 -6 -10 5 0 3 -7 -4 -15 -10 -13 -9 -15 9
-15 16 0 21 6 21 25 0 28 0 28 -20 15z"/>
<path d="M944 908 c-4 -6 -3 -8 4 -4 6 3 13 2 17 -4 4 -6 11 -7 17 -4 6 4 5
10 -3 15 -19 12 -27 11 -35 -3z"/>
<path d="M550 900 c-9 -6 -10 -10 -3 -10 6 0 15 5 18 10 8 12 4 12 -15 0z"/>
<path d="M838 899 c-10 -5 -18 -15 -18 -22 0 -8 3 -7 9 2 5 7 14 10 20 7 6 -4
11 0 11 8 0 19 0 18 -22 5z"/>
<path d="M1009 897 c-8 -7 -19 -21 -23 -32 -6 -16 -2 -15 20 7 29 28 31 45 3
25z"/>
<path d="M896 874 c-9 -24 -7 -56 3 -49 5 3 9 19 9 35 -1 34 -3 37 -12 14z"/>
<path d="M330 866 c0 -8 5 -18 10 -21 6 -3 10 1 10 9 0 8 -4 18 -10 21 -5 3
-10 -1 -10 -9z"/>
<path d="M370 870 c-13 -8 -12 -10 3 -10 9 0 17 5 17 10 0 12 -1 12 -20 0z"/>
<path d="M859 863 c-13 -16 -12 -17 4 -4 9 7 17 15 17 17 0 8 -8 3 -21 -13z"/>
<path d="M760 850 c-14 -11 -31 -18 -38 -15 -7 3 -10 0 -7 -5 7 -12 -103 -130
-121 -130 -7 0 -14 5 -16 11 -2 7 -9 5 -18 -6 -12 -14 -12 -16 1 -15 32 5 39
-1 35 -29 -2 -16 -13 -42 -25 -57 -12 -15 -19 -30 -16 -33 7 -6 60 58 60 72 0
5 8 15 19 22 11 8 16 20 12 30 -3 9 0 18 9 21 8 4 12 10 9 16 -9 14 43 61 57
52 7 -4 9 -3 5 4 -3 5 -3 12 1 14 10 4 68 68 62 68 -2 0 -15 -9 -29 -20z"/>
<path d="M1380 860 c0 -5 7 -10 15 -10 8 0 15 5 15 10 0 6 -7 10 -15 10 -8 0
-15 -4 -15 -10z"/>
<path d="M480 828 c0 -4 -8 -5 -17 -2 -13 4 -15 3 -5 -4 25 -18 19 -45 -19
-79 -20 -18 -39 -42 -42 -53 -5 -21 7 -28 18 -10 3 6 11 10 18 10 6 0 -2 -15
-19 -33 -16 -18 -10 -13 13 11 30 31 48 42 61 38 12 -4 26 2 40 19 31 35 28
46 -3 12 -24 -25 -35 -33 -35 -23 0 1 11 15 25 30 23 25 24 29 9 43 -8 9 -14
23 -11 32 3 11 -2 17 -14 17 -11 0 -19 -4 -19 -8z"/>
<path d="M862 828 c2 -7 -4 -12 -12 -10 -8 2 -12 0 -8 -3 11 -11 -10 -45 -27
-45 -15 0 -85 -99 -85 -120 0 -5 -7 -10 -16 -10 -11 0 -14 6 -9 23 7 22 7 22
-8 2 -21 -29 -47 -95 -38 -95 5 0 11 9 14 20 8 33 27 24 21 -10 -4 -19 -2 -30
5 -30 6 0 11 4 11 8 0 5 11 22 25 38 14 16 25 34 24 39 0 6 -3 4 -6 -3 -7 -19
-23 -4 -16 16 12 34 67 106 71 94 3 -10 7 -10 18 -1 7 6 21 9 29 5 17 -6 21 9
4 20 -7 4 -7 9 -1 13 15 10 24 49 12 56 -6 4 -9 1 -8 -7z"/>
<path d="M993 823 c-3 -10 -8 -22 -11 -27 -3 -5 0 -6 6 -2 5 3 12 0 14 -6 3
-7 5 2 5 20 0 36 -5 41 -14 15z"/>
<path d="M1362 828 c5 -15 28 -18 29 -3 0 6 -7 12 -17 13 -10 3 -15 -1 -12
-10z"/>
<path d="M525 810 c3 -5 8 -10 11 -10 2 0 4 5 4 10 0 6 -5 10 -11 10 -5 0 -7
-4 -4 -10z"/>
<path d="M1410 811 c0 -17 18 -21 24 -6 3 9 0 15 -9 15 -8 0 -15 -4 -15 -9z"/>
<path d="M1330 765 c7 -8 17 -12 22 -9 6 4 5 10 -3 15 -22 14 -33 10 -19 -6z"/>
<path d="M727 746 c-15 -14 -27 -30 -27 -35 0 -5 14 3 32 19 17 16 29 32 27
35 -3 3 -18 -6 -32 -19z"/>
<path d="M886 752 c-2 -4 16 -16 40 -26 45 -19 47 -21 45 -71 0 -27 3 -24 15
14 3 11 10 9 29 -9 32 -30 31 -37 -5 -45 -33 -7 -39 -21 -12 -28 14 -4 14 -5
1 -6 -11 -1 -16 -11 -16 -31 0 -16 4 -30 9 -30 4 0 7 3 7 8 -3 19 2 23 16 12
8 -7 15 -21 15 -31 0 -11 5 -19 11 -19 7 0 9 12 5 35 -4 22 -3 35 4 35 5 0 10
9 10 20 0 14 -5 18 -17 14 -17 -5 -17 -5 0 6 9 6 17 15 17 19 0 29 -162 153
-174 133z"/>
<path d="M1291 736 c-10 -11 -10 -19 -1 -33 9 -14 10 -14 7 -2 -4 11 0 16 11
15 9 0 17 5 17 13 0 20 -20 24 -34 7z"/>
<path d="M1260 696 c0 -2 8 -10 18 -17 15 -13 16 -12 3 4 -13 16 -21 21 -21
13z"/>
<path d="M1104 673 c2 -13 0 -25 -5 -28 -14 -9 2 -35 21 -35 11 0 22 -4 25
-10 3 -5 12 -10 18 -10 7 0 0 10 -14 23 -14 12 -31 36 -38 52 -7 18 -10 21 -7
8z"/>
<path d="M851 664 c0 -11 3 -14 6 -6 3 7 2 16 -1 19 -3 4 -6 -2 -5 -13z"/>
<path d="M566 643 c-6 -14 -5 -15 5 -6 7 7 10 15 7 18 -3 3 -9 -2 -12 -12z"/>
<path d="M855 615 c3 -16 6 -36 7 -42 2 -18 18 -16 18 1 0 7 -7 27 -16 42
l-16 29 7 -30z"/>
<path d="M1110 581 c0 -5 5 -13 10 -16 6 -3 10 -2 10 4 0 5 -4 13 -10 16 -5 3
-10 2 -10 -4z"/>
<path d="M606 565 c-3 -8 -1 -15 4 -15 6 0 10 7 10 15 0 8 -2 15 -4 15 -2 0
-6 -7 -10 -15z"/>
<path d="M640 540 c0 -5 5 -10 11 -10 5 0 7 5 4 10 -3 6 -8 10 -11 10 -2 0 -4
-4 -4 -10z"/>
<path d="M696 515 c-3 -9 -6 -22 -5 -28 0 -7 5 -1 10 12 5 13 8 26 5 28 -2 2
-6 -3 -10 -12z"/>
<path d="M1041 464 c0 -11 3 -14 6 -6 3 7 2 16 -1 19 -3 4 -6 -2 -5 -13z"/>
<path d="M681 454 c0 -11 3 -14 6 -6 3 7 2 16 -1 19 -3 4 -6 -2 -5 -13z"/>
</g>
</svg>
